<svg id="Layer_1" data-name="Layer 1" xmlns="http://www.w3.org/2000/svg" viewBox="0 0 144.84 28.79"><defs><style>.cls-1{fill:#fff;}</style></defs><title>chatbot-logo</title><path class="cls-1" d="M15.14,26.49a6.9,6.9,0,0,0,5.64-2.73l3,3.09a10.92,10.92,0,0,1-8.42,4,11,11,0,0,1-8-3.06,10.34,10.34,0,0,1-3.13-7.73A10.44,10.44,0,0,1,7.44,12.3a10.76,10.76,0,0,1,7.82-3.12,11.08,11.08,0,0,1,8.64,3.93L21,16.41a6.82,6.82,0,0,0-5.52-2.76A6.43,6.43,0,0,0,11,15.37,6,6,0,0,0,9.08,20a6.34,6.34,0,0,0,1.77,4.69A5.84,5.84,0,0,0,15.14,26.49Z" transform="translate(-4.25 -3.61)"/><path class="cls-1" d="M40.49,9.66h4.68v21H40.49V22.38H32.15v8.25H27.47v-21h4.68v8.76h8.34V9.66Z" transform="translate(-4.25 -3.61)"/><path class="cls-1" d="M65.27,30.63L63.32,26.1H54.53l-2,4.53h-5l9.06-21h4.53l9.06,21h-5ZM58.94,15.9L56.3,22h5.25Z" transform="translate(-4.25 -3.61)"/><path class="cls-1" d="M80,13.71V30.63H75.35V13.71H69.41V9.66H86v4.05H80Z" transform="translate(-4.25 -3.61)"/><path class="cls-1" d="M98.57,30.63H89.39v-21h8.16a11.78,11.78,0,0,1,3.67.51,5.28,5.28,0,0,1,2.33,1.38A5.43,5.43,0,0,1,105,15.21a4.29,4.29,0,0,1-1.59,3.66,5.66,5.66,0,0,1-.75.52l-0.75.34A5.5,5.5,0,0,1,105,21.49a4.89,4.89,0,0,1,1.16,3.31,5.64,5.64,0,0,1-1.5,3.87Q102.89,30.63,98.57,30.63Zm-4.5-12.48h2.22a7.51,7.51,0,0,0,2.89-.42,1.77,1.77,0,0,0,.95-1.81,1.88,1.88,0,0,0-.87-1.85,6.9,6.9,0,0,0-2.94-.45H94.07v4.53Zm0,8.52h3.21a7.1,7.1,0,0,0,3-.5,2,2,0,0,0,1-1.95,1.88,1.88,0,0,0-1.07-1.92,9.13,9.13,0,0,0-3.41-.46H94.07v4.83Z" transform="translate(-4.25 -3.61)"/><path class="cls-1" d="M143.15,13.71V30.63h-4.68V13.71h-5.94V9.66h16.56v4.05h-5.94Z" transform="translate(-4.25 -3.61)"/><circle class="cls-1" cx="111.65" cy="16.8" r="0.97"/><circle class="cls-1" cx="119.39" cy="16.8" r="0.97"/><circle class="cls-1" cx="115.52" cy="1.82" r="1.82"/><path class="cls-1" d="M120.8,22.79a1.46,1.46,0,0,1-2.07,0,1.1,1.1,0,0,0-1.55,1.55,3.65,3.65,0,0,0,5.16,0A1.1,1.1,0,0,0,120.8,22.79Z" transform="translate(-4.25 -3.61)"/><path class="cls-1" d="M119.77,9.65a10.52,10.52,0,1,0,10.52,10.52A10.52,10.52,0,0,0,119.77,9.65Zm0,18.45a7.94,7.94,0,1,1,7.94-7.94A7.94,7.94,0,0,1,119.77,28.1Z" transform="translate(-4.25 -3.61)"/><line class="cls-1" x1="115.52" y1="6.97" x2="115.52" y2="2.79"/><rect class="cls-1" x="114.88" y="2.79" width="1.29" height="4.18"/><polygon class="cls-1" points="115.52 28.79 114.54 27.1 113.57 25.41 115.52 25.41 117.47 25.41 116.49 27.1 115.52 28.79"/></svg>