<?xml version="1.0" encoding="UTF-8"?>
<svg width="43px" height="79px" viewBox="0 0 43 79" version="1.1" xmlns="http://www.w3.org/2000/svg" xmlns:xlink="http://www.w3.org/1999/xlink">
    <!-- Generator: Sketch 42 (36781) - http://www.bohemiancoding.com/sketch -->
    <title>Education Graphic</title>
    <desc>Created with Sketch.</desc>
    <defs></defs>
    <g id="Page-1" stroke="none" stroke-width="1" fill="none" fill-rule="evenodd">
        <g id="Website-About" transform="translate(-179.000000, -453.000000)">
            <g id="Page-Content" transform="translate(149.000000, 439.000000)">
                <g id="Education">
                    <g id="Education-Graphic">
                        <path d="M32.0173592,87.1362485 C37.908,90.6005592 44.7608932,92.5977631 52.0752233,92.5977631 C59.075534,92.5977631 65.6547961,90.7691806 71.3707573,87.5744621 L71.3707573,68.8322485 C71.3707573,64.4248699 69.402835,60.4627728 66.3141359,57.7527146 C70.2368544,53.9390447 72.6833786,48.6138408 72.6833786,42.7100738 C72.6833786,33.6449087 66.9371262,25.9226563 58.8887379,22.9864233 C58.5201942,22.852132 52.0721942,25.4915107 51.6945631,25.3774136 C49.771068,24.7968311 46.8489709,22.148365 44.6457864,22.9339184 C36.5206602,25.8297631 30.7057476,33.5913942 30.7057476,42.7100738 C30.7057476,48.6138408 33.1512621,53.9390447 37.0749903,57.7527146 C33.9852816,60.4627728 32.0173592,64.4248699 32.0173592,68.8322485 L32.0173592,87.1362485 Z" id="Fill-1" fill="#F06724"></path>
                        <path d="M45.9348816,39.5811883 C45.9348816,40.5969553 45.1119689,41.419868 44.0962019,41.419868 C43.080435,41.419868 42.2575223,40.5969553 42.2575223,39.5811883 C42.2575223,38.5654214 43.080435,37.7425087 44.0962019,37.7425087 C45.1119689,37.7425087 45.9348816,38.5654214 45.9348816,39.5811883" id="Fill-3" fill="#FEFEFE"></path>
                        <path d="M61.5655767,39.5811883 C61.5655767,40.5969553 60.7426641,41.419868 59.7268971,41.419868 C58.7111301,41.419868 57.8882175,40.5969553 57.8882175,39.5811883 C57.8882175,38.5654214 58.7111301,37.7425087 59.7268971,37.7425087 C60.7426641,37.7425087 61.5655767,38.5654214 61.5655767,39.5811883" id="Fill-5" fill="#FEFEFE"></path>
                        <path d="M44.096,46.3238214 C44.096,46.3238214 44.3726602,51.5823845 51.7576699,51.5823845 C59.1436893,51.5823845 59.7262913,46.3238214 59.7262913,46.3238214" id="Fill-7" fill="#FEFEFE"></path>
                        <path d="M52.2071922,30.7135223 L59.3730951,27.6429981 C59.650765,27.5238524 59.8304932,27.2502214 59.8304932,26.9493282 L59.8304932,22.2269204 L52.0153476,24.4603961 C51.9466874,24.4795806 51.8760078,24.4795806 51.8083573,24.4603961 L43.9932117,22.2269204 L43.9932117,26.9493282 C43.9932117,27.2502214 44.1719301,27.5238524 44.4496,27.6429981 L51.6144932,30.7135223 C51.8033087,30.7953087 52.0183767,30.7953087 52.2071922,30.7135223 M52.0153476,23.6455612 L52.0153476,23.6455612 L66.4814447,19.5118136 C66.6066485,19.4764738 66.7045903,19.378532 66.7399301,19.2523184 C66.7974835,19.0523961 66.681367,18.8433864 66.4814447,18.7868427 L52.0153476,14.6530951 C51.9466874,14.6339107 51.8760078,14.6339107 51.8083573,14.6530951 L37.3412505,18.7868427 C37.2160466,18.8221825 37.1181049,18.9201243 37.082765,19.0453282 C37.0252117,19.2452505 37.1413282,19.4542602 37.3412505,19.5118136 L40.5985709,20.442765 L40.5985709,26.7928233 C40.5420272,26.825134 40.4895223,26.8655223 40.442066,26.9129786 C40.1472311,27.2078136 40.1472311,27.6854058 40.442066,27.9792311 C40.4511534,27.9893282 40.4612505,27.9984155 40.4703379,28.0075029 C40.0523184,28.3275806 39.8433087,28.9546097 39.8433087,28.9546097 L39.4666874,31.217367 C39.4666874,31.217367 40.2209398,31.9716194 40.9751922,31.9716194 C41.7294447,31.9716194 42.4836971,31.217367 42.4836971,31.217367 L42.106066,28.9546097 C42.106066,28.9546097 41.898066,28.3275806 41.4790369,28.0075029 C41.489134,27.9984155 41.4992311,27.9893282 41.5083184,27.9792311 C41.8031534,27.6854058 41.8031534,27.2078136 41.5083184,26.9129786 C41.4608621,26.8655223 41.4083573,26.825134 41.3518136,26.7928233 L41.3518136,20.657833 L51.8083573,23.6455612 C51.8760078,23.6647456 51.9466874,23.6647456 52.0153476,23.6455612" id="Fill-9" fill="#221F20"></path>
                        <path d="M44.096,23.3052893 L51.9111456,24.9713087" id="Fill-14" fill="#F06724"></path>
                    </g>
                </g>
            </g>
        </g>
    </g>
</svg>