<?xml version="1.0" encoding="utf-8"?>
<!-- Generator: Adobe Illustrator 19.2.0, SVG Export Plug-In . SVG Version: 6.00 Build 0)  -->
<svg version="1.1" id="Layer_1" xmlns="http://www.w3.org/2000/svg" xmlns:xlink="http://www.w3.org/1999/xlink" x="0px" y="0px"
	 viewBox="0 0 300 300" style="enable-background:new 0 0 300 300;" xml:space="preserve">
<style type="text/css">
	.st0{fill:#FFFFFF;}
	.st1{fill:#D0D2D3;}
</style>
<path class="st0" d="M-0.5,0v300h300V0H-0.5z M274,275.5H24v-250h250V275.5z"/>
<g>
	<g>
		<g>
			<path class="st0" d="M113,185.4l-0.1,52.6H95V62h17.9l0,93.1L182.6,62h22.5"/>
		</g>
		<g>
			<path class="st1" d="M165.4,223.4l26.8-42.5c8.6-13.6,12.9-24.9,12.9-33.9c0-9.7-3.2-17.1-9.7-22.4c-5.8-4.8-13.7-7.4-23.6-7.9
				l-10.9,15.3c2.5-0.9,5.7-1.5,8.4-1.5c12.4,0,18.6,5.5,18.6,16.5c0,8.4-3.9,18.5-11.7,30.5l-37.4,57.2v3.3h50.9v-14.7H165.4z"/>
		</g>
	</g>
</g>
</svg>
