<?xml version="1.0" encoding="UTF-8"?>
<svg width="42px" height="72px" viewBox="0 0 42 72" version="1.1" xmlns="http://www.w3.org/2000/svg" xmlns:xlink="http://www.w3.org/1999/xlink">
    <!-- Generator: Sketch 42 (36781) - http://www.bohemiancoding.com/sketch -->
    <title>Occupation Graphic</title>
    <desc>Created with Sketch.</desc>
    <defs>
        <polyline id="path-1" points="0 0.606 103.434 0.606 103.434 103 0 103"></polyline>
    </defs>
    <g id="Page-1" stroke="none" stroke-width="1" fill="none" fill-rule="evenodd">
        <g id="Website-About" transform="translate(-614.000000, -458.000000)">
            <g id="Page-Content" transform="translate(149.000000, 439.000000)">
                <g id="Occupation" transform="translate(435.000000, 0.000000)">
                    <g id="Occupation-Graphic">
                        <path d="M31.7095,66.1704 L31.7095,85.2984 C37.5435,88.7294 44.3305,90.7074 51.5745,90.7074 C58.5075,90.7074 65.0235,88.8954 70.6855,85.7324 L70.6855,66.1704 C70.6855,61.8054 68.7355,57.8814 65.6765,55.1974 C69.5615,51.4204 71.9845,46.1464 71.9845,40.2994 C71.9845,28.8184 62.6775,19.5124 51.1975,19.5124 C39.7175,19.5124 30.4105,28.8184 30.4105,40.2994 C30.4105,46.1464 32.8325,51.4204 36.7185,55.1974 C33.6585,57.8814 31.7095,61.8054 31.7095,66.1704" id="Fill-1" fill="#F06724"></path>
                        <g id="Group-5">
                            <mask id="mask-2" fill="white">
                                <use xlink:href="#path-1"></use>
                            </mask>
                            <g id="Clip-4"></g>
                            <path d="M51.7174,5.6844 C26.0284,5.6844 5.1304,26.3734 5.1304,51.8034 C5.1304,77.2324 26.0284,97.9214 51.7174,97.9214 C77.4044,97.9214 98.3034,77.2324 98.3034,51.8034 C98.3034,26.3734 77.4044,5.6844 51.7174,5.6844 M51.7174,103.0004 C23.2004,103.0004 0.0004,80.0324 0.0004,51.8034 C0.0004,23.5724 23.2004,0.6054 51.7174,0.6054 C80.2334,0.6054 103.4334,23.5724 103.4334,51.8034 C103.4334,80.0324 80.2334,103.0004 51.7174,103.0004" id="Fill-3" mask="url(#mask-2)"></path>
                        </g>
                        <path d="M59.0417,42.6303 C56.7527,42.6303 54.8907,40.7683 54.8907,38.4803 C54.8907,36.1913 56.7527,34.3293 59.0417,34.3293 C61.3307,34.3293 63.1927,36.1913 63.1927,38.4803 C63.1927,40.7683 61.3307,42.6303 59.0417,42.6303" id="Fill-6" fill="#FEFEFE"></path>
                        <path d="M43.348,42.6303 C41.059,42.6303 39.197,40.7683 39.197,38.4803 C39.197,36.1913 41.059,34.3293 43.348,34.3293 C45.637,34.3293 47.499,36.1913 47.499,38.4803 C47.499,40.7683 45.637,42.6303 43.348,42.6303" id="Fill-8" fill="#FEFEFE"></path>
                        <path d="M59.0544,42.6733 C56.7654,42.6733 54.9034,40.8113 54.9034,38.5233 C54.9034,36.2343 56.7654,34.3723 59.0544,34.3723 C61.3424,34.3723 63.2054,36.2343 63.2054,38.5233 C63.2054,40.8113 61.3424,42.6733 59.0544,42.6733 M43.3394,42.6733 C41.0504,42.6733 39.1894,40.8113 39.1894,38.5233 C39.1894,36.2343 41.0504,34.3723 43.3394,34.3723 C45.6284,34.3723 47.4904,36.2343 47.4904,38.5233 C47.4904,40.8113 45.6284,42.6733 43.3394,42.6733 M59.0544,33.1083 C56.5774,33.1083 54.4894,34.7813 53.8474,37.0553 C53.0704,36.7083 52.2254,36.5243 51.3674,36.5243 C50.3894,36.5243 49.4414,36.7583 48.5844,37.1993 C47.9914,34.8533 45.8684,33.1083 43.3394,33.1083 C40.3534,33.1083 37.9254,35.5373 37.9254,38.5233 C37.9254,41.5083 40.3534,43.9373 43.3394,43.9373 C46.3124,43.9373 48.7324,41.5293 48.7524,38.5613 C49.5334,38.0573 50.4324,37.7883 51.3674,37.7883 C52.1654,37.7883 52.9494,37.9883 53.6474,38.3643 C53.6464,38.4173 53.6404,38.4693 53.6404,38.5233 C53.6404,41.5083 56.0684,43.9373 59.0544,43.9373 C62.0404,43.9373 64.4694,41.5083 64.4694,38.5233 C64.4694,35.5373 62.0394,33.1083 59.0544,33.1083" id="Fill-10" fill="#030404"></path>
                        <path d="M57.9128,44.8809 C57.6968,44.8789 57.5148,45.0499 57.5088,45.2679 L57.5068,45.2989 C57.4858,45.6019 57.3498,45.9609 56.8268,45.9609 C56.6138,45.9609 56.2068,45.4559 55.9098,45.0869 C55.3418,44.3799 54.6978,43.5799 53.7958,43.5799 C52.6918,43.5799 51.6118,44.0059 51.1978,44.1889 C50.7828,44.0059 49.7028,43.5799 48.5988,43.5799 C47.6968,43.5799 47.0528,44.3799 46.4848,45.0869 C46.1878,45.4559 45.7808,45.9609 45.5678,45.9609 C45.0448,45.9609 44.9088,45.6019 44.8878,45.2979 L44.8858,45.2679 C44.8798,45.0509 44.7028,44.8809 44.4858,44.8809 L44.4818,44.8809 C44.2638,44.8829 44.0878,45.0609 44.0848,45.2789 C44.0848,45.2789 44.0848,45.3029 44.0878,45.3459 C44.1118,45.7959 44.3068,48.0199 45.8428,48.4799 C46.3768,48.6389 46.9128,48.7199 47.4368,48.7199 C48.7648,48.7199 49.9578,48.2019 50.7098,47.2979 C50.9158,47.0499 51.0748,46.8289 51.1978,46.6319 C51.3198,46.8289 51.4788,47.0499 51.6838,47.2979 C52.4368,48.2019 53.6298,48.7199 54.9578,48.7199 C55.4818,48.7199 56.0178,48.6389 56.5518,48.4799 C58.0878,48.0199 58.2828,45.7959 58.3058,45.3459 C58.3098,45.3029 58.3088,45.2789 58.3088,45.2789 C58.3068,45.0609 58.1308,44.8829 57.9128,44.8809" id="Fill-12" fill="#FEFEFE"></path>
                        <polygon id="Fill-14" fill="#FEFEFE" points="54.7462 57.7069 47.6482 57.7069 50.8592 59.8539 47.6752 74.2629 51.1702 82.7319 54.7192 74.2629 51.5352 59.8539"></polygon>
                    </g>
                </g>
            </g>
        </g>
    </g>
</svg>