<svg id="Layer_1" data-name="Layer 1" xmlns="http://www.w3.org/2000/svg" viewBox="0 0 114.19 110.86"><defs><style>.cls-1,.cls-4{fill:#fff;}.cls-2{fill:#ed1c24;}.cls-3,.cls-4{fill-rule:evenodd;}</style></defs><title>phillips-66-logo</title><path class="cls-1" d="M58,113.19c5.63-7.47,13.43-9,23.13-9.91,11.46-1.09,16.57-2.26,23.13-9.54a29.72,29.72,0,0,0,7-18.72,40.85,40.85,0,0,0-2.57-15.29c-5-14.41-6.55-19.82,4.89-33L89.65,2.83C84.51,7.11,73.38,14.57,58,2.34,42.42,14.69,31.65,7,26.27,2.83L2.41,26.69c11.38,13.21,10.32,18.66,4.89,33A38.3,38.3,0,0,0,4.73,75c0,6.74,2.63,14.13,7,18.72,6.77,7.15,11.87,8.45,23.13,9.54,10,1,17.5,2.57,23.12,9.91h0Z" transform="translate(-2.41 -2.34)"/><path d="M58,110.25c5.75-6.48,14.46-7.93,23.25-8.81,11-1.1,15.31-2.24,21.41-8.81A26.63,26.63,0,0,0,109.22,75a45.6,45.6,0,0,0-2.82-15.66c-5.69-15.42-4.42-21.78,4.53-32.55L89.4,5.27S75.58,18.12,58,4.54c-17.5,13.58-31.45.73-31.45,0.73L5,26.81C14.14,37.58,15.44,44.06,9.5,59.35A43.14,43.14,0,0,0,6.69,75c0,6.61,2.6,13.55,6.61,17.62,6.32,6.43,10.43,7.59,21.41,8.81,8.81,1,17.5,2.33,23.25,8.81h0Z" transform="translate(-2.41 -2.34)"/><path class="cls-1" d="M58,105c8.93-5.75,13.46-5.63,22.64-7,8-1.17,13.17-1.8,19-7.59,8.2-8.2,7.41-19.84,2.45-33-5.75-15.29-.67-24.23,4.16-30.34L89,9.92S75.58,20.57,58,9.07c-17.62,11.5-31.08.86-31.08,0.86L9.74,27.05c4.78,6.12,10,14.93,4.17,30.34-5,13.24-5.63,24.84,2.45,33,5.75,5.83,10.91,6.44,19,7.59C44.74,99.36,49,99.24,58,105h0Z" transform="translate(-2.41 -2.34)"/><path class="cls-2" d="M58,99.49c9.68-5.37,15.57-4.82,26.43-6.48C107.51,89.45,100,66.21,100,66.21c0.12-2.2-5.75-13-5-23.74H20.88C21.74,53.11,16,64,15.87,66.21c0,0-7.34,23.12,15.66,26.8C43.11,94.85,48.28,94.12,58,99.49h0Z" transform="translate(-2.41 -2.34)"/><polygon points="31.08 19.44 33.95 19.44 33.95 25.53 36.92 25.53 36.92 19.44 39.94 19.44 39.94 34.84 36.92 34.84 36.92 28.25 33.95 28.25 33.95 34.84 31.08 34.84 31.08 19.44 31.08 19.44"/><polygon points="43.06 19.43 46.18 19.43 46.18 34.84 43.06 34.84 43.06 19.43 43.06 19.43"/><path d="M88.76,21.22c4.4,0,4.73,2.78,4.67,5H90.37c0-3.4-3.35-2.88-3.32-.78,0,1.17,2.16,2.4,3.93,3.49a5.4,5.4,0,0,1,2.74,4.3c0,1.52-.66,4.37-5,4.37S84,34.3,84,32.45h2.94c0,3.78,3.55,3.33,3.57.86,0,0,.22-1.16-1.74-2.33-2.2-1.31-4.68-2.3-4.62-5.51,0-.89.19-4.25,4.6-4.25h0Z" transform="translate(-2.41 -2.34)"/><polygon points="57.33 19.44 60.43 19.44 60.43 32.43 63.8 32.43 63.8 34.84 57.33 34.84 57.33 19.44 57.33 19.44"/><polygon points="49.3 19.41 52.4 19.41 52.4 32.4 55.77 32.4 55.77 34.81 49.3 34.81 49.3 19.41 49.3 19.41"/><path class="cls-3" d="M25.82,24v5.57c0.46,0,3.21.63,3.2-2.83C29,23.7,26.45,24,25.82,24h0ZM22.7,21.71V37.26h3.12V32.19c0.87,0,6,.5,6.07-5,0.17-6.07-5-5.5-6.07-5.5H22.7Z" transform="translate(-2.41 -2.34)"/><path class="cls-3" d="M77,24v5.57c0.46,0,3.21.63,3.2-2.83C80.22,23.7,77.66,24,77,24h0ZM73.9,21.71V37.26H77V32.19c0.87,0,6,.5,6.08-5,0.17-6.07-5-5.5-6.08-5.5H73.9Z" transform="translate(-2.41 -2.34)"/><polygon points="65.33 19.44 68.44 19.44 68.44 34.84 65.33 34.84 65.33 19.44 65.33 19.44"/><path class="cls-4" d="M36.54,71.41c1.07-2.43,2.65-5,4.82-4.59,2.94,0.61,1.92,4.5.9,7.27s-3.1,5.82-5.64,5.14c-2.36-.63-1.31-5-0.08-7.83h0Zm12.1-9.28c6.55,2.37,4.94,10.74,1.65,16.13C46.2,85,37.23,85.8,31.94,83.76,23.5,80.52,26,71.13,28.82,63.39c3.92-10.89,11.38-16.46,21.78-13,5.4,1.78,6.17,7.24,5.63,8.81l-8.75-.64s0.55-3.59-2-3.59c-3.85,0-6.34,8.21-6.34,8.21s3.68-3.11,9.46-1h0Zm20.08,9.28c1.08-2.43,2.72-5,4.89-4.59,2.94,0.61,1.92,4.5.9,7.27s-3.1,5.82-5.65,5.14c-2.36-.63-1.38-5-0.15-7.83h0ZM80.9,62.12c6.55,2.37,4.94,10.74,1.65,16.13C78.45,85,69.48,85.8,64.19,83.76c-8.44-3.24-5.88-12.63-3.11-20.37,4-11.14,11.69-16.4,21.78-13,5.4,1.8,6.17,7.24,5.63,8.81l-8.75-.64s0.55-3.59-2-3.59c-3.85,0-6.34,8.21-6.34,8.21s3.68-3.11,9.46-1h0Z" transform="translate(-2.41 -2.34)"/><path d="M111.52,107a5.19,5.19,0,1,1,5.08-5.19A5,5,0,0,1,111.52,107Zm0-9.47a4.3,4.3,0,1,0,4,4.28A4,4,0,0,0,111.52,97.48Zm-1,7.25h-0.94V99h2.18c1.39,0,2.09.49,2.09,1.65a1.47,1.47,0,0,1-1.5,1.57l1.61,2.52h-1.07l-1.48-2.46h-0.89v2.46Zm1.05-3.26c0.71,0,1.33-.07,1.33-0.9s-0.68-.78-1.25-0.78h-1.14v1.68h1.05Z" transform="translate(-2.41 -2.34)"/></svg>