<svg id="Layer_1" data-name="Layer 1" xmlns="http://www.w3.org/2000/svg" xmlns:xlink="http://www.w3.org/1999/xlink" viewBox="0 0 564.19 78.3"><defs><style>.cls-1{fill:none;}.cls-2{clip-path:url(#clip-path);}</style><clipPath id="clip-path" transform="translate(-10.81 0)"><rect class="cls-1" x="10.81" width="564.19" height="78.3"/></clipPath></defs><title>samsung-s8-logo</title><g class="cls-2"><path d="M105.55,23.51a18,18,0,0,0-14-6.1c-11,0-21.59,8.26-21.59,22.71,0,14.22,10.95,22.63,21.44,22.63a17.88,17.88,0,0,0,14.14-6.62v5.73H115.6V18.3H105.55v5.21ZM93,53.52A13.19,13.19,0,0,1,79.87,40a13.1,13.1,0,1,1,26.2,0c0,7.52-5.58,13.55-13,13.55" transform="translate(-10.81 0)"/><path d="M173.45,23.51a18,18,0,0,0-14-6.1c-11,0-21.59,8.26-21.59,22.71,0,14.22,10.94,22.63,21.44,22.63a17.89,17.89,0,0,0,14.15-6.62v5.73h10V18.3h-10v5.21Zm-12.51,30A13.19,13.19,0,0,1,147.76,40,13.11,13.11,0,1,1,174,40c0,7.52-5.58,13.55-13,13.55" transform="translate(-10.81 0)"/><polygon points="243.92 47.63 231.79 18.3 221.07 18.3 238.94 59.54 231.12 78.3 241.47 78.3 265.96 18.3 255.39 18.3 243.92 47.63"/><polygon points="219.95 18.3 208.04 18.3 198.22 32.08 188.31 18.3 176.03 18.3 191.82 39.67 175.44 61.85 187.72 61.85 198.07 47.34 208.72 61.85 221 61.85 204.32 39.74 219.95 18.3"/><rect x="111.71" y="6.76" width="10.12" height="55.09"/><path d="M39,62.71c16.23,0,26.57-12.58,26.57-27.25v-4H37.39v9.67H54.73C52.8,48.27,47.14,52.88,39,52.88A17.75,17.75,0,0,1,20.86,34.8,17.81,17.81,0,0,1,38.65,16.7C45.8,16.7,51,20,54.36,26.16l8.93-5.36C58.68,12.61,49.82,6.88,38.58,6.88,22.5,6.88,10.81,19.31,10.81,34.8c0,15,11.24,27.91,28.21,27.91" transform="translate(-10.81 0)"/><path d="M290.37,53l9.23-7.3c2.75,4.69,7,7.37,11.91,7.37,5.36,0,8.26-3.5,8.26-7.29,0-4.62-5.51-6-11.32-7.82-7.29-2.31-15.41-5.13-15.41-15.48,0-8.71,7.6-15.56,18-15.56,8.78,0,13.85,3.35,18.24,7.89L321,21.11a11.13,11.13,0,0,0-9.83-5.21c-4.91,0-7.59,2.68-7.59,6.17,0,4.32,5.21,5.74,11.09,7.67,7.36,2.38,15.7,5.66,15.7,16.08,0,8.56-6.85,16.9-18.76,16.9-9.83,0-16.31-4.17-21.22-9.75" transform="translate(-10.81 0)"/><path d="M334.61,45.75A14.62,14.62,0,0,1,341.31,33a13.28,13.28,0,0,1-4.84-10.65c0-9.38,7.07-15.48,17.79-15.48,10.49,0,17.64,6.11,17.64,15.48a13.35,13.35,0,0,1-5.14,10.72,14.81,14.81,0,0,1,6.55,12.66c0,10.42-7.22,17-19.43,17s-19.27-6.55-19.27-17m29,0c0-4.47-3.27-8-9.53-8s-9.75,3.65-9.75,8,3.05,8,9.53,8,9.75-3.57,9.75-8m-1-23.38c0-3.79-3.05-6.92-8.34-6.92s-8.64,3.13-8.64,6.92,2.76,6.85,8.34,6.85,8.64-3,8.64-6.85" transform="translate(-10.81 0)"/><path d="M459.17,53l9.23-7.3c2.75,4.69,7,7.37,11.91,7.37,5.36,0,8.26-3.5,8.26-7.29,0-4.62-5.51-6-11.32-7.82-7.29-2.31-15.41-5.13-15.41-15.48,0-8.71,7.59-15.56,18-15.56,8.78,0,13.85,3.35,18.24,7.89l-8.34,6.33a11.13,11.13,0,0,0-9.83-5.21c-4.91,0-7.59,2.68-7.59,6.17,0,4.32,5.21,5.74,11.09,7.67,7.36,2.38,15.7,5.66,15.7,16.08,0,8.56-6.85,16.9-18.76,16.9-9.83,0-16.31-4.17-21.22-9.75" transform="translate(-10.81 0)"/><path d="M503.41,45.75A14.62,14.62,0,0,1,510.11,33a13.28,13.28,0,0,1-4.84-10.65c0-9.38,7.07-15.48,17.79-15.48,10.49,0,17.64,6.11,17.64,15.48a13.35,13.35,0,0,1-5.13,10.72,14.81,14.81,0,0,1,6.55,12.66c0,10.42-7.22,17-19.43,17s-19.28-6.55-19.28-17m29,0c0-4.47-3.27-8-9.53-8s-9.75,3.65-9.75,8,3.05,8,9.53,8,9.75-3.57,9.75-8m-1-23.38c0-3.79-3.06-6.92-8.34-6.92s-8.64,3.13-8.64,6.92,2.76,6.85,8.34,6.85,8.64-3,8.64-6.85" transform="translate(-10.81 0)"/><rect x="402.28" width="5.98" height="72.65"/><polygon points="536.74 30.75 546.31 30.75 546.31 21.32 554.69 21.32 554.69 30.75 564.19 30.75 564.19 39.27 554.69 39.27 554.69 48.77 546.31 48.77 546.31 39.27 536.74 39.27 536.74 30.75"/></g></svg>